<mxfile host="65bd71144e">
    <diagram id="XW6MPSoXd4H35IVRpVOB" name="UI Flow">
        <mxGraphModel dx="1000" dy="590" grid="1" gridSize="10" guides="1" tooltips="1" connect="1" arrows="1" fold="1" page="1" pageScale="1" pageWidth="850" pageHeight="1100" math="0" shadow="0">
            <root>
                <mxCell id="0"/>
                <mxCell id="1" parent="0"/>
                <mxCell id="2" value="PreferencesÂ &#xa;Admin" style="rounded=1;fillColor=#e6d0de;shadow=1;gradientColor=#d5739d;strokeColor=#996185;fontSize=18;" vertex="1" parent="1">
                    <mxGeometry x="220" y="370" width="160" height="60" as="geometry"/>
                </mxCell>
                <mxCell id="3" value="Preferences" style="rounded=1;fillColor=#f8cecc;shadow=1;gradientColor=#ea6b66;strokeColor=#b85450;fontSize=18;" vertex="1" parent="1">
                    <mxGeometry x="800" y="370" width="160" height="60" as="geometry"/>
                </mxCell>
                <mxCell id="4" value="Applications&#xa;Window" style="rounded=1;fillColor=#fff2cc;shadow=1;gradientColor=#ffd966;strokeColor=#d6b656;fontSize=18;" vertex="1" parent="1">
                    <mxGeometry x="514" y="290" width="160" height="60" as="geometry"/>
                </mxCell>
                <mxCell id="5" value="Mentor Interview" style="rounded=1;fillColor=#ffcd28;shadow=1;gradientColor=#ffa500;strokeColor=#d79b00;fontSize=18;" vertex="1" parent="1">
                    <mxGeometry x="514" y="595" width="160" height="60" as="geometry"/>
                </mxCell>
                <mxCell id="6" value="Interviews&#xa;Window" style="rounded=1;fillColor=#dae8fc;shadow=1;gradientColor=#7ea6e0;strokeColor=#6c8ebf;fontSize=18;" vertex="1" parent="1">
                    <mxGeometry x="514" y="430" width="160" height="60" as="geometry"/>
                </mxCell>
                <mxCell id="7" value="Admin Menu" style="rounded=1;fillColor=#f5f5f5;shadow=1;gradientColor=#b3b3b3;strokeColor=#666666;fontSize=18;" vertex="1" parent="1">
                    <mxGeometry x="220" y="530" width="160" height="60" as="geometry"/>
                </mxCell>
                <mxCell id="8" style="endArrow=block;shadow=1;" edge="1" parent="1" source="15" target="2">
                    <mxGeometry relative="1" as="geometry"/>
                </mxCell>
                <mxCell id="9" style="endArrow=block;shadow=1;" edge="1" parent="1" source="15" target="3">
                    <mxGeometry relative="1" as="geometry"/>
                </mxCell>
                <mxCell id="10" style="endArrow=block;shadow=1;" edge="1" parent="1" source="2" target="6">
                    <mxGeometry relative="1" as="geometry"/>
                </mxCell>
                <mxCell id="11" style="endArrow=block;shadow=1;" edge="1" parent="1" source="2" target="7">
                    <mxGeometry relative="1" as="geometry"/>
                </mxCell>
                <mxCell id="12" style="endArrow=block;shadow=1;" edge="1" parent="1" source="3" target="6">
                    <mxGeometry relative="1" as="geometry"/>
                </mxCell>
                <mxCell id="13" style="endArrow=block;shadow=1;" edge="1" parent="1" source="7" target="2">
                    <mxGeometry relative="1" as="geometry"/>
                </mxCell>
                <mxCell id="14" value="" style="endArrow=block;shadow=1;" edge="1" parent="1" source="3" target="15">
                    <mxGeometry relative="1" as="geometry">
                        <mxPoint x="375" y="400" as="sourcePoint"/>
                        <mxPoint x="665" y="150" as="targetPoint"/>
                    </mxGeometry>
                </mxCell>
                <mxCell id="15" value="Login Window" style="rounded=1;fillColor=#d5e8d4;shadow=1;gradientColor=#97d077;strokeColor=#82b366;fontSize=18;" vertex="1" parent="1">
                    <mxGeometry x="524" y="110" width="140" height="60" as="geometry"/>
                </mxCell>
                <mxCell id="16" value="" style="endArrow=classic;startArrow=classic;html=1;rounded=0;entryX=1;entryY=0.5;entryDx=0;entryDy=0;exitX=0;exitY=0;exitDx=0;exitDy=0;shadow=1;" edge="1" parent="1" source="3" target="4">
                    <mxGeometry width="50" height="50" relative="1" as="geometry">
                        <mxPoint x="570" y="410" as="sourcePoint"/>
                        <mxPoint x="620" y="360" as="targetPoint"/>
                    </mxGeometry>
                </mxCell>
                <mxCell id="17" value="" style="endArrow=classic;startArrow=classic;html=1;rounded=0;entryX=0;entryY=1;entryDx=0;entryDy=0;exitX=1;exitY=0;exitDx=0;exitDy=0;shadow=1;" edge="1" parent="1" source="5" target="3">
                    <mxGeometry width="50" height="50" relative="1" as="geometry">
                        <mxPoint x="750" y="550" as="sourcePoint"/>
                        <mxPoint x="800" y="500" as="targetPoint"/>
                    </mxGeometry>
                </mxCell>
                <mxCell id="18" value="" style="endArrow=classic;startArrow=classic;html=1;rounded=0;entryX=1;entryY=1;entryDx=0;entryDy=0;exitX=0;exitY=0;exitDx=0;exitDy=0;shadow=1;" edge="1" parent="1" source="5" target="2">
                    <mxGeometry width="50" height="50" relative="1" as="geometry">
                        <mxPoint x="420" y="570" as="sourcePoint"/>
                        <mxPoint x="470" y="520" as="targetPoint"/>
                    </mxGeometry>
                </mxCell>
                <mxCell id="19" value="" style="endArrow=classic;startArrow=classic;html=1;rounded=0;exitX=1;exitY=0;exitDx=0;exitDy=0;entryX=0;entryY=0.5;entryDx=0;entryDy=0;shadow=1;" edge="1" parent="1" source="2" target="4">
                    <mxGeometry width="50" height="50" relative="1" as="geometry">
                        <mxPoint x="420" y="370" as="sourcePoint"/>
                        <mxPoint x="470" y="320" as="targetPoint"/>
                    </mxGeometry>
                </mxCell>
            </root>
        </mxGraphModel>
    </diagram>
</mxfile>